<svg width="64" height="64" viewBox="0 0 64 64" fill="none" xmlns="http://www.w3.org/2000/svg">
<path d="M62 32C62 32 51.9 52 32 52C12.1 52 2 32 2 32C2 32 12.1 12 32 12C51.9 12 62 32 62 32Z" fill="currentColor"/>
<path d="M57 32C57 32 48.6 48.7001 32 48.7001C15.4 48.7001 7 32 7 32C7 32 15.4 15.3 32 15.3C48.6 15.3 57 32 57 32Z" fill="white"/>
<path d="M45.3999 32C45.3999 39.5 39.3999 45.5 31.8999 45.5C24.3999 45.5 18.3999 39.5 18.3999 32C18.3999 24.5 24.3999 18.5 31.8999 18.5C39.3999 18.5 45.3999 24.5 45.3999 32Z" fill="#285784"/>
<path d="M39.3999 32C39.3999 36.1 35.9999 39.5 31.8999 39.5C27.7999 39.5 24.3999 36.1 24.3999 32C24.3999 27.9 27.7999 24.5 31.8999 24.5C35.9999 24.5 39.3999 27.9 39.3999 32Z" fill="#231F20"/>
</svg>
