<svg width="64" height="64" viewBox="0 0 64 64" xmlns="http://www.w3.org/2000/svg">
<path d="M10.416 34.5836H12.8326V51.5002C12.8326 54.1658 15.0002 56.3335 17.6657 56.3335H46.6643C49.3298 56.3335 51.4974 54.1658 51.4974 51.5002V34.5836H53.914C54.3918 34.5835 54.859 34.4418 55.2563 34.1762C55.6536 33.9107 55.9632 33.5333 56.1461 33.0917C56.3289 32.6502 56.3768 32.1644 56.2836 31.6957C56.1904 31.227 55.9603 30.7964 55.6225 30.4584L33.8735 8.70856C33.6493 8.48395 33.383 8.30575 33.0898 8.18417C32.7966 8.06258 32.4824 8 32.165 8C31.8476 8 31.5334 8.06258 31.2402 8.18417C30.947 8.30575 30.6807 8.48395 30.4565 8.70856L8.70753 30.4584C8.36968 30.7964 8.13961 31.227 8.04641 31.6957C7.95321 32.1644 8.00106 32.6502 8.18392 33.0917C8.36678 33.5333 8.67644 33.9107 9.07374 34.1762C9.47105 34.4418 9.93816 34.5835 10.416 34.5836ZM32.165 13.8343L46.6643 28.3342V39.4169L46.6667 51.5002H17.6657V28.3366L32.165 13.8343V13.8343Z" fill="currentColor"/>
<path d="M32.1647 44.2499C37.4957 44.2499 41.8309 39.9145 41.8309 34.5833C41.8309 29.2522 37.4957 24.9167 32.1647 24.9167C26.8338 24.9167 22.4985 29.2522 22.4985 34.5833C22.4985 39.9145 26.8338 44.2499 32.1647 44.2499ZM32.1647 29.75C34.8302 29.75 36.9978 31.9178 36.9978 34.5833C36.9978 37.2489 34.8302 39.4166 32.1647 39.4166C29.4993 39.4166 27.3316 37.2489 27.3316 34.5833C27.3316 31.9178 29.4993 29.75 32.1647 29.75Z" fill="#285784"/>
</svg>
