<svg width="64" height="64" viewBox="0 0 64 64" xmlns="http://www.w3.org/2000/svg">
<path d="M45.3333 51.2533H13.3333V18.6666H32V13.3333H13.3333C10.4 13.3333 8 15.7333 8 18.6666V50.6666C8 53.5999 10.4 55.9999 13.3333 55.9999H45.3333C48.2667 55.9999 50.6667 53.5999 50.6667 50.6666V31.9999H45.3333V51.2533Z" fill="currentColor"/>
<path d="M50.6667 5.33325H45.3334V13.3333H37.3334C37.3601 13.3599 37.3334 18.6666 37.3334 18.6666H45.3334V26.6399C45.3601 26.6666 50.6667 26.6399 50.6667 26.6399V18.6666H58.6667V13.3333H50.6667V5.33325ZM18.6667 23.9999H40.0001V29.3333H18.6667V23.9999ZM18.6667 31.9999V37.3333H40.0001V31.9999H32.0001H18.6667ZM18.6667 39.9999H40.0001V45.3333H18.6667V39.9999Z" fill="#285784"/>
</svg>
