<svg width="64" height="64" viewBox="0 0 64 64" xmlns="http://www.w3.org/2000/svg">
<path fill-rule="evenodd" clip-rule="evenodd" d="M15.6733 11.0954C18.3664 11.0954 41.5207 11 41.5207 11C42.1144 10.9976 43.024 11.2013 43.5535 11.4551C43.5535 11.4551 43.2086 11.0844 43.6924 11.5854C44.1259 12.0343 53.2531 21.452 53.4316 21.6417C53.6103 21.8318 53.4964 21.731 53.4964 21.731C53.7447 22.2704 53.91 23.2038 53.91 23.7981V49.4958C53.91 51.3995 51.6314 53.9622 49.4551 53.9622C47.2786 53.9622 17.5964 53.8733 15.4228 53.8733C13.2493 53.8733 11.1225 52.1881 11.0268 49.5461C10.9311 46.9035 11.1225 17.7604 11.1225 15.4659C11.1225 13.1717 12.9802 11.0954 15.6733 11.0954V11.0954ZM15.1793 15.8938L15.2196 48.4151C15.2204 49.0058 15.7034 49.491 16.2979 49.4942L48.7015 49.6657C48.8425 49.6667 48.9824 49.6398 49.1129 49.5864C49.2435 49.5331 49.3622 49.4544 49.4622 49.3549C49.5621 49.2554 49.6414 49.1371 49.6954 49.0068C49.7493 48.8764 49.7769 48.7367 49.7766 48.5957L49.7381 24.3085C49.7379 24.0134 49.5637 23.6054 49.3498 23.3979L41.4925 15.7871C41.2772 15.5785 41.1047 15.6519 41.1047 15.9486V25.3938C41.1047 26.2912 39.8589 27.8503 38.7306 27.8503H22.4974C21.2611 27.8503 19.9279 26.5834 19.9279 25.3938C19.9279 24.2042 19.9242 15.9492 19.9242 15.9492C19.9242 15.6524 19.6844 15.4089 19.3888 15.4054L15.7136 15.3638C15.6436 15.3631 15.5742 15.3763 15.5093 15.4026C15.4444 15.4289 15.3854 15.4679 15.3357 15.5172C15.286 15.5665 15.2466 15.6252 15.2198 15.6898C15.1929 15.7545 15.1792 15.8238 15.1793 15.8938V15.8938ZM23.9256 16.0121V23.4852C23.9256 23.7809 24.1665 24.023 24.4632 24.023H36.4775C36.7767 24.023 37.0151 23.7822 37.0151 23.4852V16.0123C37.0149 15.8698 36.9583 15.7331 36.8575 15.6322C36.7567 15.5313 36.6201 15.4745 36.4775 15.4743H24.4635C24.164 15.4743 23.9259 15.7151 23.9259 16.0123L23.9256 16.0121Z" fill="currentColor"/>
<path fill-rule="evenodd" clip-rule="evenodd" d="M32.43 30.3151C36.7777 30.3836 40.9858 34.1929 40.9858 38.8426C40.9858 43.4924 37.0577 47.3847 32.6496 47.3154C28.2415 47.2458 23.8533 43.3472 23.8533 38.8373C23.8533 34.3273 28.0824 30.2465 32.4298 30.3151H32.43ZM28.0872 38.7303C28.0872 41.3309 30.1527 43.2677 32.4461 43.2572C34.7398 43.2467 36.6844 41.3414 36.696 38.7714C36.7075 36.2011 34.6243 34.3767 32.3996 34.3767C30.1753 34.3767 28.0872 36.1291 28.0872 38.73V38.7303Z" fill="#285784"/>
</svg>
