<svg xmlns="http://www.w3.org/2000/svg" width="512" height="512" viewBox="0 0 512 512" style="enable-background:new 0 0 512 512" xml:space="preserve"><path xmlns="http://www.w3.org/2000/svg" d="M147.04 481.371H58.292V360.41a5.145 5.145 0 0 1 5.145-5.145h78.457a5.145 5.145 0 0 1 5.145 5.145v120.961z" fill="#fb2b3a" data-original="#fb2b3a"/><path xmlns="http://www.w3.org/2000/svg" d="M147.038 360.414v115.553h-25.139V360.414a5.14 5.14 0 0 0-5.145-5.145h25.139a5.14 5.14 0 0 1 5.145 5.145z" fill="#e41f2d" data-original="#e41f2d"/><path xmlns="http://www.w3.org/2000/svg" d="M300.374 481.371h-88.748V275.997a5.145 5.145 0 0 1 5.145-5.145h78.457a5.145 5.145 0 0 1 5.145 5.145v205.374z" fill="#00c27a" data-original="#00c27a"/><path xmlns="http://www.w3.org/2000/svg" d="M300.372 276.001v199.966h-25.139V276.001a5.14 5.14 0 0 0-5.145-5.145h25.139a5.14 5.14 0 0 1 5.145 5.145z" fill="#08b865" data-original="#08b865"/><path xmlns="http://www.w3.org/2000/svg" d="M453.708 481.371H364.96V178.283a5.145 5.145 0 0 1 5.145-5.145h78.457a5.145 5.145 0 0 1 5.145 5.145v303.088z" fill="#8ac9fe" data-original="#8ac9fe"/><path xmlns="http://www.w3.org/2000/svg" d="M453.707 178.287v297.681h-25.139V178.287a5.14 5.14 0 0 0-5.145-5.145h25.139a5.14 5.14 0 0 1 5.145 5.145z" fill="#60b7ff" data-original="#60b7ff"/><path xmlns="http://www.w3.org/2000/svg" d="m112.775 201.652 12.088 24.493a5.446 5.446 0 0 0 4.1 2.979l27.029 3.928c9.248 1.344 12.94 12.708 6.248 19.231l-19.558 19.065a5.446 5.446 0 0 0-1.566 4.82l4.617 26.92c1.58 9.21-8.087 16.234-16.359 11.885l-24.176-12.71a5.446 5.446 0 0 0-5.068 0l-24.176 12.71c-8.271 4.348-17.938-2.675-16.359-11.885l4.617-26.92a5.447 5.447 0 0 0-1.566-4.82l-19.558-19.065c-6.692-6.523-2.999-17.887 6.248-19.231l27.029-3.928a5.446 5.446 0 0 0 4.1-2.979l12.088-24.493c4.137-8.38 16.086-8.38 20.222 0z" fill="#fe9901" data-original="#fe9901"/><path xmlns="http://www.w3.org/2000/svg" d="M142.685 271.348a5.399 5.399 0 0 0-1.56 4.812l4.603 26.934c1.579 9.206-8.084 16.225-16.358 11.869l-24.176-12.706a5.412 5.412 0 0 0-5.06 0l-24.176 12.706c-8.274 4.356-17.937-2.663-16.358-11.869l1.046-6.144a10.205 10.205 0 0 0 1.655-.704l10.667-5.615c5.357-2.82 10.719-5.7 16.402-7.821 4.645-1.734 9.617-2.413 14.551-2.599 5.327-.2 13.199 3.486 16.498-2.642 1.015-1.885.698-4.52 1.058-6.568 1.673-9.521 7.128-17.993 14.13-24.688 4.392-4.185 8.629-8.527 12.973-12.761.456-.456.875-.913 1.217-1.408l6.201.913c9.244 1.332 12.934 12.706 6.239 19.23z" fill="#fb8801" data-original="#fb8801"/><path xmlns="http://www.w3.org/2000/svg" d="m266.109 107.747 12.088 24.493a5.446 5.446 0 0 0 4.1 2.979l27.029 3.928c9.248 1.344 12.94 12.708 6.249 19.231l-19.558 19.065a5.446 5.446 0 0 0-1.566 4.82l4.617 26.92c1.58 9.21-8.087 16.234-16.359 11.885l-24.176-12.71a5.446 5.446 0 0 0-5.068 0l-24.176 12.71c-8.271 4.348-17.938-2.675-16.359-11.885l4.617-26.92a5.447 5.447 0 0 0-1.566-4.82l-19.558-19.065c-6.692-6.523-2.999-17.887 6.248-19.231l27.029-3.928a5.446 5.446 0 0 0 4.1-2.979l12.088-24.493c4.136-8.38 16.086-8.38 20.221 0z" fill="#fe9901" data-original="#fe9901"/><path xmlns="http://www.w3.org/2000/svg" d="M296.019 177.443a5.399 5.399 0 0 0-1.56 4.812l4.603 26.934c1.579 9.206-8.084 16.225-16.358 11.869l-24.176-12.706a5.412 5.412 0 0 0-5.06 0l-24.176 12.706c-8.274 4.356-17.937-2.663-16.358-11.869l1.046-6.144a10.205 10.205 0 0 0 1.655-.704l10.667-5.615c5.357-2.82 10.719-5.7 16.402-7.821 4.645-1.734 9.617-2.413 14.551-2.599 5.327-.2 13.199 3.486 16.498-2.642 1.015-1.885.698-4.52 1.058-6.568 1.673-9.521 7.128-17.993 14.13-24.688 4.392-4.185 8.629-8.527 12.973-12.761.456-.456.875-.913 1.217-1.408l6.201.913c9.244 1.332 12.934 12.706 6.239 19.23z" fill="#fb8801" data-original="#fb8801"/><path xmlns="http://www.w3.org/2000/svg" d="m419.444 7.415 12.088 24.493a5.446 5.446 0 0 0 4.1 2.979l27.029 3.928c9.248 1.344 12.94 12.708 6.248 19.231L449.35 77.109a5.446 5.446 0 0 0-1.566 4.82l4.617 26.92c1.58 9.21-8.087 16.234-16.359 11.885l-24.176-12.71a5.446 5.446 0 0 0-5.068 0l-24.176 12.71c-8.271 4.348-17.938-2.675-16.359-11.885l4.617-26.92a5.447 5.447 0 0 0-1.566-4.82l-19.558-19.065c-6.692-6.523-2.999-17.887 6.248-19.231l27.029-3.928a5.446 5.446 0 0 0 4.1-2.979l12.088-24.493c4.138-8.378 16.087-8.378 20.223.002z" fill="#fe9901" data-original="#fe9901"/><path xmlns="http://www.w3.org/2000/svg" d="M449.354 77.11a5.399 5.399 0 0 0-1.56 4.812l4.603 26.934c1.579 9.206-8.084 16.225-16.358 11.869l-24.176-12.706a5.412 5.412 0 0 0-5.06 0l-24.176 12.706c-8.274 4.356-17.937-2.663-16.358-11.869l1.046-6.144a10.205 10.205 0 0 0 1.655-.704l10.667-5.615c5.357-2.82 10.719-5.7 16.402-7.821 4.645-1.734 9.617-2.413 14.551-2.599 5.327-.2 13.199 3.486 16.498-2.642 1.015-1.885.698-4.52 1.058-6.568 1.673-9.521 7.128-17.993 14.13-24.688 4.392-4.185 8.629-8.527 12.973-12.761.456-.456.875-.913 1.217-1.408l6.201.913c9.244 1.332 12.934 12.706 6.239 19.23z" fill="#fb8801" data-original="#fb8801"/><path xmlns="http://www.w3.org/2000/svg" d="M506.855 510.87H5.145A5.145 5.145 0 0 1 0 505.725v-24.611a5.145 5.145 0 0 1 5.145-5.145h501.709a5.145 5.145 0 0 1 5.145 5.145v24.611a5.144 5.144 0 0 1-5.144 5.145z" fill="#5a5a5a" data-original="#5a5a5a"/></svg>